# xmcd
#
# Track frame offsets: 
#        150
#        19242
#        37226
#        55449
#        70960
#        92711
#        115650
#        135681
#        152143
#        167209
#        193285
#        210714
#
# Disc length: 3022 seconds
#
# Revision: 0
# Processed by: cddbd v1.5.2PL0 Copyright (c) Steve Scherf et al.
# Submitted via: ExactAudioCopy v0.95a5
#
DISCID=b50bcc0c
DTITLE=Sex Machine Band - Funkmistrz z Lublina
DYEAR=2015
DGENRE=Funk
TTITLE0=Medley
TTITLE1=Funki Cat
TTITLE2=Jazda
TTITLE3=Moon
TTITLE4=Fajka
TTITLE5=Hej to ja
TTITLE6=Dosyc mam  pytan
TTITLE7=Tatanka funk
TTITLE8=Jestem
TTITLE9=Sam
TTITLE10=Loki Baki
TTITLE11=Jazda remix
EXTD=
EXTT0=
EXTT1=
EXTT2=
EXTT3=
EXTT4=
EXTT5=
EXTT6=
EXTT7=
EXTT8=
EXTT9=
EXTT10=
EXTT11=
PLAYORDER=
